<svg width="53" height="16" viewBox="0 0 53 16" fill="none" xmlns="http://www.w3.org/2000/svg">
<path d="M1.314 12.26C1.002 12.26 0.733333 12.156 0.508 11.948C0.282667 11.7227 0.17 11.4627 0.17 11.168V3.16C0.17 2.65733 0.326 2.25 0.638 1.938C0.967333 1.626 1.40067 1.47 1.938 1.47H4.538C5.59533 1.47 6.44467 1.782 7.086 2.406C7.74467 3.03 8.074 3.81 8.074 4.746C8.074 5.30067 7.92667 5.82067 7.632 6.306C7.33733 6.79133 6.91267 7.18133 6.358 7.476C6.60067 7.59733 6.81733 7.762 7.008 7.97C7.216 8.178 7.38067 8.42933 7.502 8.724L8.36 10.7C8.44667 10.908 8.49 11.0813 8.49 11.22C8.49 11.532 8.36867 11.792 8.126 12C7.88333 12.1907 7.61467 12.286 7.32 12.286C7.12933 12.286 6.93867 12.234 6.748 12.13C6.57467 12.026 6.436 11.8613 6.332 11.636L5.344 9.27C5.17067 8.854 4.93667 8.55933 4.642 8.386C4.36467 8.19533 4.03533 8.1 3.654 8.1H2.978C2.63133 8.1 2.458 8.27333 2.458 8.62V11.168C2.458 11.4627 2.34533 11.7227 2.12 11.948C1.89467 12.156 1.626 12.26 1.314 12.26ZM2.848 6.15H4.434C4.86733 6.15 5.20533 6.02867 5.448 5.786C5.708 5.54333 5.838 5.23133 5.838 4.85C5.838 4.45133 5.708 4.13933 5.448 3.914C5.20533 3.67133 4.86733 3.55 4.434 3.55H2.848C2.588 3.55 2.458 3.68 2.458 3.94V5.76C2.458 6.02 2.588 6.15 2.848 6.15ZM13.0751 12.26C11.8965 12.26 10.8998 11.9133 10.0851 11.22C9.28781 10.5093 8.88914 9.53867 8.88914 8.308C8.88914 7.02533 9.27914 6.02 10.0591 5.292C10.8565 4.564 11.8531 4.2 13.0491 4.2C13.8985 4.2 14.6005 4.356 15.1551 4.668C15.7098 4.98 16.1258 5.37867 16.4031 5.864C16.6805 6.34933 16.8191 6.86067 16.8191 7.398C16.8191 8.29933 16.4205 8.75 15.6231 8.75H11.3071C11.1685 8.75 11.0991 8.83667 11.0991 9.01C11.0991 9.40867 11.3158 9.72933 11.7491 9.972C12.1998 10.1973 12.7025 10.31 13.2571 10.31C13.6038 10.31 13.9505 10.2667 14.2971 10.18C14.6438 10.076 14.9471 9.92867 15.2071 9.738C15.3805 9.61667 15.5625 9.556 15.7531 9.556C16.0131 9.556 16.2298 9.65133 16.4031 9.842C16.5938 10.0327 16.6891 10.258 16.6891 10.518C16.6891 10.83 16.5245 11.1247 16.1951 11.402C15.8831 11.662 15.4238 11.87 14.8171 12.026C14.2278 12.182 13.6471 12.26 13.0751 12.26ZM14.4271 7.242C14.4618 7.242 14.5051 7.23333 14.5571 7.216C14.6265 7.19867 14.6611 7.138 14.6611 7.034C14.6611 6.774 14.4965 6.54 14.1671 6.332C13.8551 6.10667 13.4478 5.994 12.9451 5.994C12.4078 5.994 11.9658 6.11533 11.6191 6.358C11.2898 6.58333 11.1251 6.81733 11.1251 7.06C11.1251 7.18133 11.1945 7.242 11.3331 7.242H14.4271ZM24.898 12.26C24.5687 12.26 24.2914 12.1647 24.066 11.974C23.858 11.7833 23.754 11.5407 23.754 11.246V8.074C23.754 7.43267 23.6067 6.97333 23.312 6.696C23.0347 6.41867 22.688 6.28 22.272 6.28C21.8387 6.28 21.4747 6.41867 21.18 6.696C20.9027 6.97333 20.7294 7.294 20.66 7.658V11.142C20.66 11.4367 20.5474 11.688 20.322 11.896C20.114 12.0867 19.854 12.182 19.542 12.182C19.2127 12.182 18.9354 12.0867 18.71 11.896C18.4847 11.7053 18.372 11.4627 18.372 11.168V5.344C18.372 5.06667 18.476 4.83267 18.684 4.642C18.9094 4.434 19.1954 4.33 19.542 4.33C19.8194 4.33 20.0534 4.408 20.244 4.564C20.4347 4.70267 20.5647 4.88467 20.634 5.11C21.102 4.50333 21.8127 4.2 22.766 4.2C23.7367 4.2 24.5254 4.486 25.132 5.058C25.7387 5.63 26.042 6.54 26.042 7.788V11.298C26.042 11.5753 25.9294 11.8093 25.704 12C25.496 12.1733 25.2274 12.26 24.898 12.26ZM31.2451 12.26C30.4997 12.26 29.8844 12.0433 29.3991 11.61C28.9137 11.1767 28.6711 10.5093 28.6711 9.608V6.8C28.6711 6.62667 28.5844 6.54 28.4111 6.54H28.0211C27.7091 6.54 27.4751 6.44467 27.3191 6.254C27.1631 6.06333 27.0851 5.82067 27.0851 5.526C27.0851 5.214 27.1631 4.96267 27.3191 4.772C27.4751 4.564 27.7091 4.46 28.0211 4.46H28.4111C28.5844 4.46 28.6711 4.37333 28.6711 4.2V2.276C28.6711 1.98133 28.7751 1.73 28.9831 1.522C29.1911 1.314 29.4597 1.21 29.7891 1.21C30.1184 1.21 30.3871 1.314 30.5951 1.522C30.8204 1.71267 30.9331 1.964 30.9331 2.276V4.2C30.9331 4.37333 31.0197 4.46 31.1931 4.46H32.1551C32.4497 4.46 32.6924 4.564 32.8831 4.772C33.0911 4.98 33.1951 5.23133 33.1951 5.526C33.1951 5.82067 33.0911 6.06333 32.8831 6.254C32.6924 6.44467 32.4411 6.54 32.1291 6.54H31.1931C31.0197 6.54 30.9331 6.62667 30.9331 6.8V9.244C30.9331 9.556 30.9851 9.77267 31.0891 9.894C31.2104 10.0153 31.3577 10.076 31.5311 10.076C31.6004 10.076 31.7391 10.0587 31.9471 10.024C32.1551 9.972 32.2851 9.946 32.3371 9.946C32.6144 9.946 32.8484 10.05 33.0391 10.258C33.2297 10.466 33.3251 10.7173 33.3251 11.012C33.3251 11.2373 33.2557 11.4453 33.1171 11.636C32.9957 11.8267 32.7964 11.9653 32.5191 12.052C32.2937 12.1213 32.0771 12.1733 31.8691 12.208C31.6611 12.2427 31.4531 12.26 31.2451 12.26ZM35.818 12.26C35.4887 12.26 35.2114 12.1647 34.986 11.974C34.7607 11.7833 34.648 11.5407 34.648 11.246V5.344C34.648 5.06667 34.752 4.83267 34.96 4.642C35.1854 4.434 35.4714 4.33 35.818 4.33C36.1647 4.33 36.4334 4.434 36.624 4.642C36.832 4.83267 36.936 5.07533 36.936 5.37V11.22C36.936 11.5147 36.8234 11.766 36.598 11.974C36.39 12.1647 36.13 12.26 35.818 12.26ZM35.818 3.03C35.454 3.03 35.142 2.91733 34.882 2.692C34.622 2.44933 34.492 2.146 34.492 1.782C34.492 1.45267 34.622 1.16667 34.882 0.923999C35.142 0.681333 35.454 0.559999 35.818 0.559999C36.1647 0.559999 36.4594 0.681333 36.702 0.923999C36.962 1.16667 37.092 1.45267 37.092 1.782C37.092 2.146 36.962 2.44933 36.702 2.692C36.4594 2.91733 36.1647 3.03 35.818 3.03Z" fill="black"/>
<path d="M40.808 12.26C40.4787 12.26 40.21 12.1647 40.002 11.974C39.794 11.766 39.69 11.4973 39.69 11.168V6.8C39.69 6.62667 39.6033 6.54 39.43 6.54H39.066C38.754 6.54 38.52 6.44467 38.364 6.254C38.208 6.06333 38.13 5.82067 38.13 5.526C38.13 5.214 38.208 4.96267 38.364 4.772C38.52 4.564 38.754 4.46 39.066 4.46H39.43C39.6033 4.46 39.69 4.37333 39.69 4.2V3.654C39.69 2.70067 39.9413 1.97267 40.444 1.47C40.964 0.949999 41.64 0.689999 42.472 0.689999C42.6627 0.689999 42.8707 0.707333 43.096 0.741999C43.3387 0.759333 43.5293 0.794 43.668 0.845999C43.9107 0.932666 44.084 1.07133 44.188 1.262C44.3093 1.45267 44.37 1.652 44.37 1.86C44.37 2.13733 44.2833 2.39733 44.11 2.64C43.9367 2.86533 43.694 2.978 43.382 2.978C43.2433 2.978 43.1133 2.96067 42.992 2.926C42.8707 2.89133 42.7407 2.874 42.602 2.874C42.186 2.874 41.978 3.16867 41.978 3.758V4.2C41.978 4.37333 42.0647 4.46 42.238 4.46H43.2C43.4947 4.46 43.7373 4.564 43.928 4.772C44.136 4.98 44.24 5.23133 44.24 5.526C44.24 5.82067 44.136 6.06333 43.928 6.254C43.7373 6.44467 43.486 6.54 43.174 6.54H42.238C42.0647 6.54 41.978 6.62667 41.978 6.8V11.168C41.978 11.48 41.8653 11.74 41.64 11.948C41.432 12.156 41.1547 12.26 40.808 12.26ZM44.76 5.24C44.76 4.89333 44.8813 4.63333 45.124 4.46C45.3667 4.28667 45.644 4.2 45.956 4.2C46.1987 4.2 46.4067 4.26933 46.58 4.408C46.7707 4.52933 46.9007 4.70267 46.97 4.928L48.582 8.854C48.6687 9.07933 48.79 9.192 48.946 9.192C49.102 9.192 49.2147 9.07933 49.284 8.854L50.688 4.928C50.7747 4.68533 50.9133 4.50333 51.104 4.382C51.312 4.26067 51.5287 4.2 51.754 4.2C52.0487 4.2 52.3173 4.29533 52.56 4.486C52.82 4.67667 52.95 4.928 52.95 5.24C52.95 5.41333 52.9153 5.578 52.846 5.734L48.79 15.094C48.6687 15.354 48.5127 15.536 48.322 15.64C48.1487 15.7613 47.9667 15.822 47.776 15.822C47.464 15.822 47.178 15.7093 46.918 15.484C46.6753 15.276 46.554 15.0247 46.554 14.73C46.554 14.574 46.5887 14.4353 46.658 14.314L48.062 11.818C47.7673 11.7313 47.5333 11.5147 47.36 11.168L44.838 5.708C44.786 5.552 44.76 5.396 44.76 5.24Z" fill="#7D8FEE"/>
</svg>
